<svg xmlns="http://www.w3.org/2000/svg" viewBox="0 0 960 430" font-family="'JetBrains Mono','Fira Code',ui-monospace,monospace" role="img" aria-label="ReviewFlow setup wizard: ten ordered steps">
  <defs>
    <style>
      .bg{fill:#16130e}
      .card{fill:#1f1a13}
      .br{fill:none;stroke:#e9a83a;stroke-width:2}
      .br-final{stroke:#5fd97a}
      .num{fill:#16130e;font-size:13px;font-weight:700}
      .badge{fill:#e9a83a}
      .badge-final{fill:#5fd97a}
      .label{fill:#e8e0d0;font-size:12.5px;letter-spacing:.5px}
      .sub{fill:#8a7f6a;font-size:10px;letter-spacing:.5px}
      .flow{fill:none;stroke:#5fd97a;stroke-width:2}
      .down{fill:none;stroke:#e9a83a;stroke-width:2;stroke-dasharray:4 4}
      .kw{fill:#5fd97a;font-size:13px;letter-spacing:1px}
      .title{fill:#f6c66b;font-size:18px;font-weight:700;letter-spacing:1px}
      .note{fill:#8a7f6a;font-size:11px;letter-spacing:.3px}
    </style>
    <marker id="ah" viewBox="0 0 10 10" refX="8" refY="5" markerWidth="7" markerHeight="7" orient="auto-start-reverse">
      <path d="M0,0 L10,5 L0,10 z" fill="#5fd97a"/>
    </marker>
    <marker id="ah-a" viewBox="0 0 10 10" refX="8" refY="5" markerWidth="7" markerHeight="7" orient="auto-start-reverse">
      <path d="M0,0 L10,5 L0,10 z" fill="#e9a83a"/>
    </marker>
  </defs>

  <rect class="bg" x="0" y="0" width="960" height="430" rx="10"/>

  <text class="kw" x="30" y="42">// REVIEWFLOW</text>
  <text class="title" x="30" y="68">SETUP WIZARD</text>
  <text class="sub" x="30" y="88">$ reviewflow setup  —  10 ordered steps, stops at the first blocking error</text>

  <!-- flow arrows: top row left to right -->
  <path class="flow" d="M190,150 L210,150" marker-end="url(#ah)"/>
  <path class="flow" d="M370,150 L390,150" marker-end="url(#ah)"/>
  <path class="flow" d="M550,150 L570,150" marker-end="url(#ah)"/>
  <path class="flow" d="M730,150 L750,150" marker-end="url(#ah)"/>
  <!-- down connector 5 -> 6 -->
  <path class="down" d="M830,190 L830,270" marker-end="url(#ah-a)"/>
  <!-- flow arrows: bottom row right to left -->
  <path class="flow" d="M750,310 L730,310" marker-end="url(#ah)"/>
  <path class="flow" d="M570,310 L550,310" marker-end="url(#ah)"/>
  <path class="flow" d="M390,310 L370,310" marker-end="url(#ah)"/>
  <path class="flow" d="M210,310 L190,310" marker-end="url(#ah)"/>

  <!-- TOP ROW -->
  <g transform="translate(30,110)">
    <rect class="card" width="160" height="80" rx="3"/>
    <path class="br" d="M0,16 L0,0 L16,0 M144,0 L160,0 L160,16 M0,64 L0,80 L16,80 M144,80 L160,80 L160,64"/>
    <circle class="badge" cx="18" cy="18" r="11"/><text class="num" x="18" y="22.5" text-anchor="middle">1</text>
    <text class="label" x="80" y="52" text-anchor="middle">CHECK DEPS</text>
    <text class="sub" x="80" y="68" text-anchor="middle">git · claude · cli</text>
  </g>
  <g transform="translate(210,110)">
    <rect class="card" width="160" height="80" rx="3"/>
    <path class="br" d="M0,16 L0,0 L16,0 M144,0 L160,0 L160,16 M0,64 L0,80 L16,80 M144,80 L160,80 L160,64"/>
    <circle class="badge" cx="18" cy="18" r="11"/><text class="num" x="18" y="22.5" text-anchor="middle">2</text>
    <text class="label" x="80" y="52" text-anchor="middle">CLAUDE LOGIN</text>
    <text class="sub" x="80" y="68" text-anchor="middle">oauth · no api key</text>
  </g>
  <g transform="translate(390,110)">
    <rect class="card" width="160" height="80" rx="3"/>
    <path class="br" d="M0,16 L0,0 L16,0 M144,0 L160,0 L160,16 M0,64 L0,80 L16,80 M144,80 L160,80 L160,64"/>
    <circle class="badge" cx="18" cy="18" r="11"/><text class="num" x="18" y="22.5" text-anchor="middle">3</text>
    <text class="label" x="80" y="52" text-anchor="middle">INSTALL DAEMON</text>
    <text class="sub" x="80" y="68" text-anchor="middle">background service</text>
  </g>
  <g transform="translate(570,110)">
    <rect class="card" width="160" height="80" rx="3"/>
    <path class="br" d="M0,16 L0,0 L16,0 M144,0 L160,0 L160,16 M0,64 L0,80 L16,80 M144,80 L160,80 L160,64"/>
    <circle class="badge" cx="18" cy="18" r="11"/><text class="num" x="18" y="22.5" text-anchor="middle">4</text>
    <text class="label" x="80" y="52" text-anchor="middle">GEN SECRETS</text>
    <text class="sub" x="80" y="68" text-anchor="middle">webhook · .env</text>
  </g>
  <g transform="translate(750,110)">
    <rect class="card" width="160" height="80" rx="3"/>
    <path class="br" d="M0,16 L0,0 L16,0 M144,0 L160,0 L160,16 M0,64 L0,80 L16,80 M144,80 L160,80 L160,64"/>
    <circle class="badge" cx="18" cy="18" r="11"/><text class="num" x="18" y="22.5" text-anchor="middle">5</text>
    <text class="label" x="80" y="52" text-anchor="middle">ADD PROJECT</text>
    <text class="sub" x="80" y="68" text-anchor="middle">remote · platform</text>
  </g>

  <!-- BOTTOM ROW -->
  <g transform="translate(750,270)">
    <rect class="card" width="160" height="80" rx="3"/>
    <path class="br" d="M0,16 L0,0 L16,0 M144,0 L160,0 L160,16 M0,64 L0,80 L16,80 M144,80 L160,80 L160,64"/>
    <circle class="badge" cx="18" cy="18" r="11"/><text class="num" x="18" y="22.5" text-anchor="middle">6</text>
    <text class="label" x="80" y="52" text-anchor="middle">CONFIG PIPELINE</text>
    <text class="sub" x="80" y="68" text-anchor="middle">preset · agents</text>
  </g>
  <g transform="translate(570,270)">
    <rect class="card" width="160" height="80" rx="3"/>
    <path class="br" d="M0,16 L0,0 L16,0 M144,0 L160,0 L160,16 M0,64 L0,80 L16,80 M144,80 L160,80 L160,64"/>
    <circle class="badge" cx="18" cy="18" r="11"/><text class="num" x="18" y="22.5" text-anchor="middle">7</text>
    <text class="label" x="80" y="52" text-anchor="middle">GEN FILES</text>
    <text class="sub" x="80" y="68" text-anchor="middle">config · skills · mcp</text>
  </g>
  <g transform="translate(390,270)">
    <rect class="card" width="160" height="80" rx="3"/>
    <path class="br" d="M0,16 L0,0 L16,0 M144,0 L160,0 L160,16 M0,64 L0,80 L16,80 M144,80 L160,80 L160,64"/>
    <circle class="badge" cx="18" cy="18" r="11"/><text class="num" x="18" y="22.5" text-anchor="middle">8</text>
    <text class="label" x="80" y="52" text-anchor="middle">REGISTER</text>
    <text class="sub" x="80" y="68" text-anchor="middle">daemon repo list</text>
  </g>
  <g transform="translate(210,270)">
    <rect class="card" width="160" height="80" rx="3"/>
    <path class="br" d="M0,16 L0,0 L16,0 M144,0 L160,0 L160,16 M0,64 L0,80 L16,80 M144,80 L160,80 L160,64"/>
    <circle class="badge" cx="18" cy="18" r="11"/><text class="num" x="18" y="22.5" text-anchor="middle">9</text>
    <text class="label" x="80" y="52" text-anchor="middle">VALIDATE</text>
    <text class="sub" x="80" y="68" text-anchor="middle">schema · env · paths</text>
  </g>
  <g transform="translate(30,270)">
    <rect class="card" width="160" height="80" rx="3"/>
    <path class="br br-final" d="M0,16 L0,0 L16,0 M144,0 L160,0 L160,16 M0,64 L0,80 L16,80 M144,80 L160,80 L160,64"/>
    <circle class="badge-final" cx="18" cy="18" r="11"/><text class="num" x="18" y="22.5" text-anchor="middle">10</text>
    <text class="label" x="80" y="52" text-anchor="middle">NEXT ACTIONS</text>
    <text class="sub" x="80" y="68" text-anchor="middle">webhook url · secret</text>
  </g>

  <text class="note" x="30" y="400">▸ amber dashed = step transition  ·  green = flow  ·  step 10 done = ready for first review</text>
</svg>
